<?xml version="1.0" standalone="no"?>
<!DOCTYPE svg PUBLIC "-//W3C//DTD SVG 20010904//EN"
 "http://www.w3.org/TR/2001/REC-SVG-20010904/DTD/svg10.dtd">
<svg version="1.0" xmlns="http://www.w3.org/2000/svg"
 width="512.000000pt" height="512.000000pt" viewBox="0 0 512.000000 512.000000"
 preserveAspectRatio="xMidYMid meet">

<g transform="translate(0.000000,512.000000) scale(0.100000,-0.100000)"
fill="#000000" stroke="none">
<path d="M2437 4946 c-131 -47 -190 -188 -169 -403 16 -161 51 -215 117 -185
40 18 59 60 66 142 11 125 51 178 93 125 27 -33 40 -28 64 23 20 43 34 45 108
12 61 -27 132 -22 166 12 43 43 0 147 -90 213 -90 67 -257 95 -355 61z"/>
<path d="M2710 4422 c0 -24 27 -49 40 -36 4 5 10 18 12 29 2 15 -3 21 -24 23
-22 3 -28 -1 -28 -16z"/>
<path d="M3260 4200 c-32 -32 -75 -66 -94 -74 -62 -26 -149 -37 -210 -28 l-56
9 0 -27 c0 -23 5 -29 31 -34 77 -15 192 0 264 36 22 11 65 45 97 75 55 55 57
55 101 49 35 -5 46 -4 50 8 10 27 -21 46 -74 46 -47 0 -52 -3 -109 -60z"/>
<path d="M2339 4123 c-49 -30 -74 -103 -50 -141 16 -26 46 -9 49 28 4 45 27
70 63 70 20 0 34 -8 45 -26 11 -16 24 -24 38 -22 34 5 31 35 -7 73 -28 28 -43
35 -73 35 -22 0 -51 -8 -65 -17z"/>
<path d="M2384 4015 c-4 -10 10 -58 31 -111 70 -173 193 -352 298 -432 60 -46
142 -92 166 -92 9 0 -16 -16 -54 -34 -39 -19 -102 -61 -141 -94 -41 -35 -86
-63 -105 -67 -19 -4 -56 -19 -84 -34 -56 -29 -208 -176 -302 -292 l-62 -76 24
-36 c15 -22 46 -46 82 -64 62 -30 110 -33 358 -22 74 3 97 1 129 -15 102 -51
223 -238 219 -340 -1 -28 3 -57 9 -63 14 -18 120 -16 163 1 65 28 35 73 -41
61 l-46 -6 9 83 c13 138 7 313 -16 399 -40 154 -123 280 -231 349 l-51 33 68
36 c81 43 124 72 179 121 31 28 51 38 90 43 62 7 141 33 176 59 25 18 30 18
50 4 16 -11 25 -13 35 -4 19 16 16 35 -9 52 -30 21 -70 20 -99 -3 -45 -35
-119 -54 -209 -55 -77 0 -92 3 -163 36 -141 67 -261 206 -359 417 -71 154 -72
156 -91 159 -9 2 -20 -4 -23 -13z"/>
<path d="M4020 3557 c-3 -4 -57 -9 -120 -13 -63 -3 -125 -7 -137 -7 -11 -1
-18 -6 -15 -12 6 -10 118 -171 447 -644 132 -191 150 -212 158 -193 6 12 14
22 19 22 4 0 8 6 8 14 0 7 11 39 25 69 36 82 54 127 53 130 -1 1 5 13 12 27 8
14 15 30 16 37 4 23 27 88 34 98 5 6 9 13 9 18 1 4 1 8 2 10 0 1 2 13 5 27 2
14 7 32 11 40 3 8 7 20 8 25 10 61 19 96 26 101 4 2 6 11 3 18 -3 8 0 17 5 21
6 3 9 11 5 16 -3 6 -3 18 1 27 13 32 14 80 1 97 -18 25 -127 44 -336 59 -30 2
-95 7 -145 11 -49 4 -92 5 -95 2z"/>
<path d="M1685 2659 c-16 -5 -42 -7 -57 -3 -14 3 -29 1 -32 -4 -3 -5 -24 -9
-46 -9 -22 0 -46 -6 -54 -12 -8 -6 -18 -11 -22 -10 -5 1 -12 0 -16 -1 -5 -1
-12 -4 -18 -5 -5 -1 -11 -3 -12 -4 -2 -2 -14 -4 -27 -7 -14 -2 -30 -9 -38 -15
-7 -6 -13 -8 -13 -3 0 5 -4 4 -8 -2 -4 -6 -40 -26 -81 -44 -41 -17 -82 -40
-93 -49 -10 -10 -31 -24 -46 -32 -15 -8 -31 -20 -35 -26 -4 -7 -13 -13 -19
-13 -6 0 -21 -11 -34 -25 -13 -14 -27 -25 -32 -25 -13 0 -38 -32 -44 -57 -6
-22 15 -40 37 -33 74 23 359 29 398 8 10 -5 36 -10 58 -10 21 0 42 -4 45 -9 3
-5 9 -7 14 -4 5 3 21 0 37 -7 15 -6 31 -12 36 -13 4 -2 8 -3 10 -4 1 -2 13 -5
27 -7 13 -2 27 -8 30 -12 13 -19 32 0 90 88 74 113 134 192 209 279 42 48 50
62 33 56 -13 -4 -29 -2 -36 5 -8 6 -29 11 -47 11 -19 0 -68 2 -109 4 -41 2
-88 0 -105 -6z"/>
<path d="M1510 1736 c-7 -9 -16 -14 -20 -11 -4 3 -11 -2 -14 -11 -3 -8 -10
-13 -15 -9 -5 3 -13 0 -17 -7 -12 -19 -12 -48 -1 -48 6 0 8 -3 5 -6 -3 -3 5
-17 18 -31 13 -14 24 -32 24 -38 0 -7 7 -15 15 -19 8 -3 14 -9 13 -13 -2 -4
13 -28 32 -52 19 -23 34 -46 33 -50 -1 -3 5 -10 13 -14 8 -5 12 -12 9 -18 -4
-5 -2 -9 4 -9 6 0 18 -15 27 -32 10 -18 24 -38 33 -45 9 -7 13 -13 9 -13 -4 0
4 -12 17 -26 13 -14 30 -39 37 -55 7 -16 16 -29 20 -29 5 0 8 -6 8 -13 0 -8
11 -19 24 -25 20 -9 31 -6 71 19 33 21 44 33 37 42 -5 7 -87 125 -182 262 -95
138 -176 254 -180 258 -4 4 -13 1 -20 -7z"/>
<path d="M2795 1298 c-44 -16 -155 -49 -246 -72 l-166 -42 0 -69 c0 -39 -3
-92 -7 -120 -4 -27 -8 -60 -9 -72 -1 -12 -5 -24 -9 -28 -4 -4 -4 -13 -2 -20 3
-7 1 -16 -5 -19 -6 -4 -8 -13 -5 -20 3 -8 1 -17 -5 -20 -6 -4 -8 -13 -4 -21 3
-8 0 -15 -6 -15 -6 0 -8 -7 -5 -15 4 -8 2 -15 -3 -15 -5 0 -10 -10 -10 -22 -1
-13 -7 -24 -13 -26 -5 -2 -8 -7 -6 -10 2 -4 -4 -23 -15 -42 -10 -19 -23 -47
-30 -62 -6 -16 -15 -28 -21 -28 -5 0 -7 -4 -4 -9 3 -5 -1 -14 -9 -21 -8 -7
-15 -18 -15 -24 0 -16 38 -38 45 -26 4 6 11 8 16 5 5 -4 9 -1 9 5 0 6 5 8 10
5 6 -3 10 -1 10 5 0 6 5 8 10 5 6 -3 10 -1 10 5 0 6 4 9 9 5 6 -3 18 3 28 13
19 18 99 72 108 72 11 0 195 180 195 192 0 4 9 13 20 20 11 7 20 17 20 21 0
10 60 100 73 108 4 3 9 12 10 20 4 27 30 79 39 79 5 0 7 3 5 8 -3 4 8 33 23
66 16 32 26 64 23 71 -2 7 0 16 6 19 6 4 8 13 5 20 -3 8 0 17 5 21 6 3 9 11 5
16 -3 5 -1 16 6 24 8 10 8 15 -1 20 -8 6 -7 10 2 16 27 17 -15 7 -96 -23z"/>
</g>
</svg>
