<?xml version="1.0" standalone="no"?>
<!DOCTYPE svg PUBLIC "-//W3C//DTD SVG 20010904//EN"
 "http://www.w3.org/TR/2001/REC-SVG-20010904/DTD/svg10.dtd">
<svg version="1.0" xmlns="http://www.w3.org/2000/svg"
 width="512.000000pt" height="512.000000pt" viewBox="0 0 512.000000 512.000000"
 preserveAspectRatio="xMidYMid meet">

<g transform="translate(0.000000,512.000000) scale(0.100000,-0.100000)"
fill="#000000" stroke="none">
<path d="M1773 5046 c-114 -37 -222 -157 -248 -273 l-7 -33 -187 0 c-132 0
-191 -4 -199 -12 -8 -8 -12 -50 -12 -125 l0 -113 -409 0 -409 0 -31 -26 c-17
-14 -35 -42 -41 -62 -6 -25 -10 -704 -10 -2037 0 -1884 1 -2002 18 -2034 9
-19 30 -44 45 -55 l28 -21 1569 0 1569 0 28 21 c15 11 34 32 40 45 10 19 13
462 13 2052 0 1793 -2 2031 -15 2057 -31 59 -37 60 -452 60 -208 0 -387 3
-399 6 -19 5 -22 16 -30 122 l-9 117 -188 3 -187 2 -39 84 c-47 102 -92 153
-173 196 -54 29 -75 34 -143 37 -49 2 -96 -3 -122 -11z m212 -85 c82 -37 175
-173 175 -255 0 -43 17 -47 212 -46 179 2 183 1 182 -19 0 -12 -1 -104 -2
-206 l-2 -185 -675 0 -675 0 0 204 0 205 184 3 c101 2 187 6 190 9 4 3 13 32
21 63 29 110 88 189 170 227 54 25 166 25 220 0z m-865 -655 c0 -93 3 -116 17
-127 13 -12 145 -15 741 -17 672 -3 725 -2 743 14 16 15 19 32 19 124 0 103 1
108 23 114 40 11 747 7 768 -4 19 -11 19 -44 19 -2034 0 -1607 -3 -2026 -12
-2034 -17 -13 -3079 -15 -3114 -2 l-24 10 0 2016 c0 1863 1 2019 17 2036 15
17 41 18 410 18 l393 0 0 -114z"/>
<path d="M1795 4882 c-203 -95 -138 -396 85 -397 202 0 280 261 113 379 -55
38 -138 46 -198 18z m145 -87 c67 -34 78 -132 22 -187 -55 -56 -153 -45 -187
22 -8 16 -15 48 -15 71 0 33 6 47 34 75 28 28 42 34 75 34 23 0 55 -7 71 -15z"/>
<path d="M600 3650 c-13 -8 -15 -54 -15 -315 0 -261 2 -307 15 -315 23 -15
603 -13 618 2 17 17 17 609 0 626 -15 15 -595 17 -618 2z m560 -92 c0 -14 -49
-71 -152 -175 l-152 -153 -51 50 -51 50 -22 -23 c-12 -13 -22 -28 -22 -34 0
-11 134 -143 146 -143 4 0 72 64 151 142 l143 142 0 -162 0 -162 -245 0 -245
0 0 245 0 245 250 0 250 0 0 -22z"/>
<path d="M1550 3520 l0 -40 790 0 790 0 0 40 0 40 -790 0 -790 0 0 -40z"/>
<path d="M1550 3170 l0 -40 340 0 340 0 0 40 0 40 -340 0 -340 0 0 -40z"/>
<path d="M591 2527 c-9 -23 -3 -608 6 -617 2 -3 144 -6 314 -8 l309 -3 11 28
c7 19 8 117 3 310 -6 235 -9 283 -22 288 -15 5 -425 24 -545 25 -61 0 -68 -2
-76 -23z m565 -84 c-5 -17 -63 -85 -154 -175 l-147 -148 -47 47 -48 47 -30
-30 -31 -30 75 -72 c40 -40 80 -72 87 -72 7 0 75 62 151 137 l138 137 0 -147
0 -147 -199 0 c-109 0 -219 -3 -245 -6 l-46 -7 0 247 0 246 251 0 251 0 -6
-27z"/>
<path d="M1550 2410 l0 -40 790 0 790 0 0 40 0 40 -790 0 -790 0 0 -40z"/>
<path d="M1550 2060 l0 -40 340 0 340 0 0 40 0 40 -340 0 -340 0 0 -40z"/>
<path d="M591 1419 c-12 -32 -3 -601 10 -614 13 -13 608 -10 620 2 5 5 8 143
7 309 l-3 299 -60 7 c-33 3 -174 9 -312 13 l-252 8 -10 -24z m561 -94 c-3 -37
-15 -52 -147 -185 l-145 -145 -50 50 -50 49 -27 -27 -28 -27 70 -70 c38 -38
76 -70 84 -70 8 0 77 62 153 137 l138 137 0 -152 0 -152 -245 0 -245 0 0 243
c0 134 3 247 7 251 4 3 115 5 247 4 l241 -3 -3 -40z"/>
<path d="M1550 1300 l0 -40 790 0 790 0 0 40 0 40 -790 0 -790 0 0 -40z"/>
<path d="M1550 955 l0 -35 340 0 340 0 0 35 0 35 -340 0 -340 0 0 -35z"/>
<path d="M4195 4899 c-43 -12 -102 -64 -128 -112 l-22 -42 -3 -1911 -2 -1911
186 -399 c102 -219 191 -405 196 -412 17 -20 45 -14 66 15 16 25 279 583 346
737 l26 58 0 1894 c0 1888 0 1893 -21 1948 -23 64 -77 116 -138 134 -45 14
-460 15 -506 1z m516 -92 c58 -38 69 -74 69 -219 l0 -128 -330 0 -330 0 0 130
c0 93 4 139 14 158 16 30 53 66 76 75 8 3 117 6 241 6 219 1 227 0 260 -22z
m-301 -2132 l0 -1705 -114 0 c-62 0 -128 -3 -145 -6 l-31 -6 0 1711 0 1711
145 0 145 0 0 -1705z m370 0 l0 -1705 -145 0 -145 0 0 1705 0 1705 145 0 145
0 0 -1705z m-30 -1790 c0 -3 -28 -65 -63 -138 -35 -73 -101 -214 -148 -314
-46 -101 -87 -183 -90 -183 -3 0 -66 129 -139 288 -73 158 -139 296 -147 307
-30 45 -30 45 287 45 165 0 300 -2 300 -5z"/>
</g>
</svg>
